<svg width="680pt" height="680pt" version="1.0" viewBox="0 0 680 680" xmlns="http://www.w3.org/2000/svg">
  <g transform="translate(0 680) scale(.1 -.1)">
    <path d="m813 6646c-94-30-163-88-208-175-44-87-46-65 151-1849 121-1089 193-1704 209-1780 51-242 145-359 325-409 61-17 171-18 1960-18h1895l48 24c103 51 235 206 270 319 15 47 33 166 61 402 8 69 22 182 31 253 8 70 22 184 30 255 9 70 22 179 30 242s21 176 30 250 22 187 30 250 21 171 29 240c22 180 43 356 61 505 27 222 45 375 61 505 20 173 40 332 60 488 20 155 15 242-19 316-29 63-101 136-164 168l-48 23-2400 2c-1966 1-2408-1-2442-11zm3730-990c39-16 82-61 96-99 17-45 13-101-29-452-22-181-47-384-55-450-113-942-127-1048-144-1089-25-56-75-112-122-137-37-18-68-19-1052-19-1124 0-1073-3-1142 66-32 32-66 115-79 194-16 101-196 1762-196 1813 0 79 32 136 92 166l43 21h1278c1063 0 1283-2 1310-14z"/>
    <path d="m2730 4755c-124-107-225-199-225-204 0-6 103-99 228-207l229-196 31 28c21 19 25 20 10 4l-22-24 30-18c27-17 31-17 54-2 30 19 31 28 6 59-14 19-21 22-32 12-7-7-3 0 10 15l23 27-33 29c-248 214-304 265-304 273 0 5 61 61 135 125s150 130 169 147l35 30-55 48c-30 27-56 48-59 48s-106-87-230-194z"/>
    <path d="m3512 4901-53-48 176-151 175-151-176-152-175-151 42-36c23-21 50-42 59-49 14-10 46 14 215 159 109 94 195 166 191 160-4-7-330-291-365-318-6-5 42-43 54-44 6 0 33 21 60 45 28 25 85 76 129 113 43 37 97 83 120 104 22 20 55 48 71 62l30 25-26 25c-25 23-27 23-45 8-10-9-5-2 11 16l29 32-24 24c-43 42-434 376-440 376-3-1-29-23-58-49z"/>
    <path d="m2940 4727c-58-51-128-111-155-134l-50-43 30-24c24-20 32-22 40-12 6 8 42 40 81 72 109 92 204 178 204 187 0 7-37 48-42 46-2 0-50-42-108-92z"/>
    <path d="m5910 6302c0-26-6-97-14-157-8-61-22-171-31-245-18-150-31-259-75-625-55-454-71-581-105-870-35-289-49-410-105-870-17-137-37-306-46-375-46-384-55-425-121-522-73-108-169-192-253-221l-45-16 41-1c23 0 59 7 80 16 58 23 182 156 222 237 35 71 48 140 86 472 9 77 23 192 31 255s21 171 29 240 22 184 31 255c9 72 22 186 31 255 8 69 21 177 29 240s21 176 30 250c16 136 33 273 60 498 8 67 21 177 29 245 8 67 22 181 31 252 9 72 22 186 31 255 8 69 19 159 24 200 14 108 24 280 17 280-4 0-7-22-7-48zm-470-3666c-11-18-29-41-40-51s-20-23-20-29c0-7-20-32-45-56s-45-40-45-36c0 5-9-2-20-15-10-13-19-20-20-15 0 5-8 2-17-5-16-13-17-12-4 3 7 10 17 15 22 12s9-1 9 5c0 5 23 28 51 50 29 23 49 41 45 41s5 12 19 28c14 15 36 44 47 65 12 20 25 37 30 37 4 0-2-15-12-34zm-233-222c-3-3-12-4-19-1-8 3-5 6 6 6 11 1 17-2 13-5z"/>
    <path d="m1321 2409c13-8 97-13 88-5-2 2-26 6-53 9-30 3-43 1-35-4z"/>
    <path d="m2362 2393c505-2 1331-2 1836 0 504 1 91 2-918 2s-1422-1-918-2z"/>
    <path d="m1265 2142c-16-2-37-6-45-9s-23-5-34-4c-10 2-16-1-13-6 3-4-8-8-24-9-59-2-172-96-181-149-2-11-9-26-16-34-8-8-11-22-9-33 3-10 1-15-5-12-5 3-9-2-7-12 1-11-3-32-10-49-7-16-10-37-8-47 3-10 1-15-5-12-5 3-9-2-7-12 1-11-2-27-6-38-4-10-8-31-9-46s-5-26-10-23c-5 4-6-6-2-21 3-14 3-26-2-26-11 0-34-99-26-111 3-5 1-9-4-9-10 0-34-98-27-110 3-5 0-10-6-12s-11-22-12-45c-1-22-6-38-11-35s-7-4-4-16 1-23-4-24c-5-2-10-22-11-45-1-22-6-39-10-36-5 3-8-3-6-13 1-11-3-32-10-49-7-16-10-37-8-47 3-10 1-15-5-12-5 3-9-2-7-12 1-11-3-32-10-49-7-16-10-37-8-47 3-10 1-15-5-12-5 3-9-2-7-12 1-11-2-27-6-38-4-10-8-31-9-47s-5-29-9-29c-5 0-5-9-2-20s2-20-3-20c-11 0-34-98-26-111 3-5 1-9-4-9-11 0-34-98-26-111 3-5 1-9-3-9-5 0-14-19-20-43-14-49-4-108 22-137 24-27 118-71 168-78 45-7 4843-10 4913-3 49 5 170 63 166 80-1 7 2 10 7 7 33-21 45 93 17 172-8 23-13 42-11 42s-3 19-11 43c-8 23-17 53-19 67s-10 44-18 67c-9 22-14 43-11 45 2 3-5 30-15 61-11 32-18 57-16 57s-2 19-11 41c-8 23-16 52-18 64-4 23-26 100-52 184-11 35-11 47-1 59 8 11 8 13 0 9-12-7-43 69-43 105 0 11-3 17-7 15-5-3-9 5-9 16-3 42-13 93-28 135-8 23-13 42-11 42s-5 25-15 55-17 55-15 55-5 25-15 55-17 55-15 55-5 25-15 56c-11 31-17 60-14 65s-3 9-13 10c-10 0-13 3-6 5 7 3 9 12 6 20-3 7-9 12-13 9-5-3-6 4-3 14 10 40-171 173-214 157-8-4-11-1-8 5 4 6 1 9-6 8-8-1-21 1-29 4-14 7-3892 15-3955 9zm3480-237c70-19 150-60 174-91 10-13 53-152 95-311 43-158 113-420 157-581 43-161 79-309 79-328 0-46-34-77-108-98-53-14-229-16-1908-16-1673 0-1856 2-1905 16-70 21-105 47-112 81-3 17 17 117 50 248 30 121 92 375 139 564 46 189 93 363 103 385 33 75 112 124 226 139 17 2 687 5 1490 6 1283 1 1468-1 1520-14zm-328-1652c-653-2-1721-2-2375 0-653 1-118 2 1188 2s1841-1 1187-2z"/>
    <path d="m1814 800c-50-7-294-124-294-140 0-4 12-11 28-15 15-5 767-10 1672-12 1617-4 1720-3 1720 26 0 4-64 39-142 77l-143 69-1395 1c-767 1-1418-2-1446-6zm2975-77 124-63h-1684-1684l95 52c52 29 111 58 130 65 28 10 327 12 1465 10l1430-2 124-62z"/>
    <path d="m5902 360c-7-12-8-20-2-20 5 0 10-5 10-10 0-6-6-10-13-8-6 2-26-7-43-19s-55-32-85-45l-54-23-4830-10h2440 2440l55 23c69 29 99 60 98 101-1 17-2 31-2 31-1 0-7-9-14-20zm-15-55c0-8-4-12-8-10-4 3-10-2-13-11-4-9-9-14-13-11-3 4-13 1-22-6-14-11-14-10-2 6 8 9 16 15 19 12s11 4 19 15c17 24 20 25 20 5z"/>
  </g>
</svg>
