<svg xmlns="http://www.w3.org/2000/svg" width="400" height="300" shape-rendering="geometricPrecision" text-rendering="geometricPrecision" image-rendering="optimizeQuality" fill-rule="evenodd" clip-rule="evenodd" viewBox="0 0 6350 7620"><filter id="a"><feGaussianBlur in="SourceAlpha" stdDeviation="20"/><feOffset dx="80" dy="80" result="offsetblur"/><feComponentTransfer><feFuncA type="linear" slope=".1"/></feComponentTransfer><feMerge><feMergeNode/><feMergeNode in="SourceGraphic"/></feMerge></filter><path fill="#D9DADA" stroke="#D9DADA" stroke-width="7.62" d="M881 6939h4368c107 0 188 2 281-33 74-27 117-68 117-111v-31h2l-2-7v-6h-1l-399-1486c-1-2-1-5-2-7l-2-6c-13-39-24-61-77-100-63-46-184-102-313-102H1282c-152 1-304 7-409 66-57 31-87 72-104 111l-28 64h-1l-2 6-2 7h1L380 6750h-2v7l-1 5 1 1c0 47-3 82 73 123 61 34 151 53 246 53h184z" filter="url(#a)"/><path fill="#FEFEFE" stroke="#C5C6C6" stroke-width="7.62" d="M1388 6714h3329c82 0 143 2 215-25 56-20 89-51 89-84v-24h1l-1-5v-5h-2l-304-1133h1c-1-1-1-3-2-5l-1-5h-1c-10-29-18-46-58-75-48-36-140-78-239-78H1693c-115 0-231 5-311 50-43 24-66 55-79 84l-22 49-2 5-2 5h1l-272 1102h-1v5l-1 5h1c0 36-2 63 55 94 46 26 115 40 188 40h140z" filter="url(#a)"/><path fill="#EBECEC" fill-opacity=".502" d="M4717 6714c82 0 143 2 215-25 56-20 89-51 89-84v-24h1l-1-5v-5h-2l-304-1133h1c-1-1-1-3-2-5l-1-5h-1c-10-29-18-46-58-75-48-36-140-78-239-78-665 802-1231 1439-1076 1439h1378z"/><path fill="#EBECEC" stroke="#B2B3B3" stroke-width="7.62" d="M1638 6543h2805c69 0 121 0 181-2 47-3 75-6 75-10v-2h1l-1-1h-1l-256-123-1-1h-2c-8-3-15-5-49-8-41-4-118-9-201-9H1895c-98 0-195 1-263 6-36 2-55 5-66 9l-18 5h-2l-2 1h1l-229 120h-1l-1 1h1c0 4-2 6 47 10 39 3 96 4 158 4h118z" filter="url(#a)"/><g><path fill="#2196F3" d="M881 581h4368c107-1 188-5 281 72 74 61 117 151 117 247v70l2 1-2 13v15h-1l-399 3306c-1 5-1 10-2 15l-2 15v-1c-13 87-24 135-77 221-63 103-184 228-313 228H1282c-152-2-304-16-409-147-57-70-87-159-104-247l-28-142h-1l-2-14-2-14 1-1-357-3217h-2v-15l-1-13h1c0-105-3-183 73-275 61-74 151-117 246-117h184z" filter="url(#a)"/><path fill="#00BCD4" stroke="#008DD2" stroke-width="7.62" d="M1189 884h3737c92 0 161-4 241 62 63 52 100 129 100 211v60l1 1-1 12v12h-2l-341 2828h1c-1 5-2 9-2 13l-2 13c-12 74-21 115-66 189-54 88-157 194-268 194H1532c-130-1-260-13-350-125-48-60-74-136-89-211l-24-122h-1l-1-12-3-12 1-1-305-2752h-1v-13l-1-11h1c-1-90-3-157 62-236 52-63 129-100 211-100h157z" filter="url(#a)"/><path fill="#CDDC39" stroke="#009846" stroke-width="7.62" d="M1522 1212h3055c75 0 131-3 197 51 51 42 82 105 82 172v50h1l-1 10v9h-2l-279 2313h1c-1 4-1 7-2 10l-1 11c-10 60-17 94-54 154-44 72-128 159-219 159H1802c-106-1-212-11-286-102-40-49-60-112-72-173l-20-100-1 1-1-10-2-10 1-1-250-2250h-1v-10l-1-9 1-1c0-73-2-128 51-192 42-52 105-82 172-82h129z" filter="url(#a)"/><path fill="#FEFEFE" stroke="#EBECEC" stroke-width="7.62" d="M1876 1561h2330c57 0 100-2 149 39 40 32 63 80 63 131v38h1l-1 8v7h-1l-213 1763c0 3 0 6-1 8l-1 8c-7 46-13 72-41 118-34 55-98 121-167 121H2090c-81-1-162-8-219-78-30-37-45-85-55-132l-15-76-1-7-2-8h1l-190-1716h-1v-8l-1-7h1c0-56-2-97 39-146 32-40 80-63 131-63h98z" filter="url(#a)"/><path fill="#EBECEC" fill-opacity=".502" d="M4355 1600c59 48 63 100 63 169h1l-1 8v7h-1l-213 1763c0 3 0 6-1 8l-1 8c-7 46-13 72-41 118-34 55-98 121-167 121h-385c-96 0-76 8-58-62 146-582 631-1957 773-2160 2-2 21 11 31 20z"/><path d="M2847 2970l-349-300 349-300-106-92-456 392 456 391 106-91zm395 0l350-300-350-300 107-92 455 392-455 391-107-91z" filter="url(#a)"/></g></svg>