<svg xmlns="http://www.w3.org/2000/svg" width="50mm" height="50mm" viewBox="0 0 50 50" enable-background="new"><defs><filter y="-.25" height="1.5" id="b" color-interpolation-filters="sRGB"><feGaussianBlur stdDeviation="5" result="result6"/><feComposite result="result8" in="SourceGraphic" operator="atop" in2="result6"/><feComposite result="result9" in2="SourceAlpha" in="result8"/><feColorMatrix values="1 0 0 0 0 0 1 0 0 0 0 0 1 0 0 0 0 0 1 0" result="result10"/><feBlend in="result10" in2="result6"/></filter><filter y="-.25" height="1.5" id="a" color-interpolation-filters="sRGB"><feGaussianBlur stdDeviation="5" result="result6"/><feComposite result="result8" in="SourceGraphic" operator="atop" in2="result6"/><feComposite result="result9" in2="SourceAlpha" in="result8"/><feColorMatrix values="1 0 0 0 0 0 1 0 0 0 0 0 1 0 0 0 0 0 1 0" result="result10"/><feBlend in="result10" in2="result6"/></filter></defs><path d="M22.798 4.637c-1.322-.02-2.733 2.503-2.756 4.843-.022 2.34 1.345 4.496 2.668 4.514 1.323.02 2.602-2.1 2.624-4.439.022-2.339-1.213-4.9-2.536-4.918z" fill="none" stroke="#000" stroke-width=".283"/><path d="M21.96 1.184l-3.968 9.922 3.44 5.953 3.307-.132 2.248-5.292-2.513-10.45z" fill="none" stroke="#000" stroke-width=".265"/><path d="M17.992 11.106L2.778 26.584l3.572 6.88 37.042.132 3.44-6.615-19.845-15.346" fill="none" stroke="#000" stroke-width=".265"/><path fill="none" d="M6.879 10.974h2.778v4.895H6.879z"/><path fill="none" d="M7.938 4.624h4.233v8.996H7.938z"/><path fill="none" stroke="#000" stroke-width=".265" d="M16.007 17.059h5.424v19.579h-5.424zM25.4 16.927h5.424v19.579H25.4z"/><path d="M25.63 25.194v-8.136H30.657V33.33H25.63zM16.237 25.26v-8.07H21.264v16.14H16.237z" fill="#4d4d4d" stroke="#000" stroke-width=".13229"/><path d="M4.773 29.994l-1.74-3.336 3.03-3.113c6.775-6.959 11.915-12.102 11.971-11.977.033.073.735 1.293 1.56 2.712l1.502 2.58-2.628.036-2.628.036V33.33H6.513z" fill="#ececec" stroke="#000" stroke-width=".13229"/><path d="M36.51 33.366l-5.456-.039V16.794h-5.82V33.33H21.66V17.206l1.593-.04c1.083-.028 1.623-.094 1.687-.204.051-.09.54-1.236 1.086-2.547.61-1.466 1.052-2.362 1.147-2.326.085.032 4.479 3.403 9.764 7.49 6.801 5.26 9.588 7.49 9.535 7.628-.04.106-.779 1.543-1.64 3.192l-1.567 2.997-.649.005c-.357.002-3.105-.013-6.106-.035z" fill="#e6e6e6" stroke="#000" stroke-width=".13229"/><path d="M21.35 16.5c-.105-.166-.856-1.453-1.668-2.86l-1.476-2.56 1.951-4.882 1.952-4.882h1.09c.924 0 1.1.035 1.159.231.256.863 2.356 9.809 2.353 10.021-.003.146-.475 1.366-1.05 2.712l-1.047 2.448-1.537.037c-1.475.036-1.544.025-1.727-.265zm2.646-2.896c1.684-1.616 1.998-5.086.684-7.551-.586-1.1-1.15-1.562-1.902-1.562-.512 0-.675.075-1.186.546-.742.684-1.326 1.855-1.607 3.224-.182.886-.193 1.228-.067 2.099.233 1.616.949 2.928 1.936 3.55.63.396 1.547.265 2.142-.306z" fill="#999" stroke="#000" stroke-width=".13229"/><path d="M21.956 13.486c-1.245-.759-1.977-3.176-1.562-5.159.566-2.712 2.117-4.157 3.247-3.026.976.976 1.52 2.728 1.426 4.594-.057 1.112-.115 1.34-.577 2.245-.769 1.509-1.57 1.934-2.534 1.346z" fill="maroon" stroke="#000" stroke-width=".13229"/><path d="M21.914 13.317c-.606-.408-1.241-1.676-1.445-2.88-.138-.82-.13-1.132.046-2.035.376-1.912 1.369-3.382 2.286-3.382.764 0 1.748 1.502 2.051 3.13.08.425.12 1.258.089 1.851-.046.876-.136 1.24-.48 1.94-.495 1.006-1.186 1.678-1.727 1.678-.205 0-.574-.136-.82-.302z" fill="navy" stroke="#000" stroke-width=".13229"/><path d="M61.369 132.723v-5.25h19v10.5h-19z" transform="scale(.26458)" fill="maroon" stroke="#000" stroke-width=".5" filter="url(#a)"/><path d="M96.869 132.473v-5h19v10h-19z" transform="scale(.26458)" fill="maroon" stroke="#000" stroke-width=".5" filter="url(#b)"/></svg>